<svg width="32" height="32" viewBox="0 0 32 32" fill="none" xmlns="http://www.w3.org/2000/svg">
<rect width="32" height="32" rx="10" fill="#592C93"/>
<path d="M3.188 17.95C2.616 17.6713 2.33 17.1653 2.33 16.432C2.33 15.6987 2.62333 15.1853 3.21 14.892C8.24067 11.9147 11.13 10.1987 11.878 9.744C12.626 9.28933 13.0733 9.04 13.22 8.996C13.3813 8.92267 13.572 8.886 13.792 8.886C14.188 8.886 14.5987 9.24533 15.024 9.964C15.3027 10.4187 15.442 10.7633 15.442 10.998C15.442 11.218 15.3907 11.4087 15.288 11.57C15.156 11.8047 14.8553 12.076 14.386 12.384C10.0153 14.9653 7.742 16.3147 7.566 16.432L14.386 20.48C14.6647 20.6413 14.8627 20.7733 14.98 20.876C15.3027 21.14 15.464 21.426 15.464 21.734C15.464 22.0273 15.332 22.3867 15.068 22.812C14.8187 23.2227 14.5913 23.516 14.386 23.692C14.1807 23.868 13.968 23.956 13.748 23.956C13.4547 23.956 13.0733 23.8167 12.604 23.538L3.188 17.95ZM28.355 14.892C28.9416 15.1853 29.235 15.6987 29.235 16.432C29.235 17.1653 28.949 17.6713 28.377 17.95L18.983 23.538C18.235 24.022 17.6336 24.0733 17.179 23.692C16.9736 23.516 16.761 23.252 16.541 22.9C16.2476 22.416 16.101 22.064 16.101 21.844C16.101 21.624 16.145 21.4333 16.233 21.272C16.3943 21.0227 16.7096 20.7587 17.179 20.48L24.021 16.432L17.201 12.384C16.937 12.2227 16.739 12.0907 16.607 11.988C16.2843 11.7093 16.123 11.4087 16.123 11.086C16.123 10.7927 16.2476 10.4407 16.497 10.03C16.9516 9.26733 17.377 8.886 17.773 8.886C18.125 8.886 18.521 9.02533 18.961 9.304L28.355 14.892Z" fill="#FCFAFF"/>
</svg>
